<?xml version="1.0" encoding="UTF-8" standalone="no"?>
<!-- Created with Inkscape (http://www.inkscape.org/) -->

<svg
   xmlns:svg="http://www.w3.org/2000/svg"
   xmlns="http://www.w3.org/2000/svg"
   xmlns:xlink="http://www.w3.org/1999/xlink"
   width="316"
   height="316"
   id="svg2987"
   version="1.1"
   >
  <defs
     id="defs2989">
    <linearGradient
       id="linearGradient3818">
      <stop
         style="stop-color:#8c8cb1;stop-opacity:1"
         offset="0"
         id="stop3820" />
      <stop
         style="stop-color:#000000;stop-opacity:0;"
         offset="1"
         id="stop3822" />
    </linearGradient>
    <linearGradient
       xlink:href="#linearGradient3818"
       id="linearGradient3824"
       x1="1998.012"
       y1="247.19321"
       x2="1771.3718"
       y2="791.9248"
       gradientUnits="userSpaceOnUse" />
  </defs>
  <metadata
     id="metadata2992">
    </metadata>
  <g
     id="layer1"
     transform="translate(-342,-394.36219)">
    <path
       id="path3782"
       d="M 525.22307,693.15874 C 488.84788,652.98779 467.65109,628.27729 446.42066,601.29347 410.15,555.19358 381.69408,509.57951 362.43988,466.67465 c -9.36444,-20.8672 -21.50959,-53.20599 -20.36455,-54.22456 1.01691,-0.90457 39.05218,-7.60957 59.71867,-10.52743 36.77427,-5.19208 61.3466,-7.0735 97.92135,-7.49751 49.18888,-0.57025 86.47084,2.69181 130.94511,11.45732 20.73154,4.08601 27.11655,5.65279 27.32682,6.70554 0.26451,1.32429 -3.65175,25.77411 -6.61627,41.30637 -13.87092,72.67501 -35.1708,130.51477 -70.91003,192.55604 -5.24087,9.09784 -36.82217,61.77172 -38.22133,63.74862 -0.60966,0.8614 -2.71937,-1.2513 -17.01658,-17.0403 z"
       style="color:#000000;display:inline;overflow:visible;visibility:visible;fill:#b0b2b4;fill-opacity:1;fill-rule:evenodd;stroke:none;stroke-width:1px;marker:none;enable-background:accumulate" />
    <path
       style="color:#000000;display:inline;overflow:visible;visibility:visible;fill:#383780;fill-opacity:1;fill-rule:evenodd;stroke:none;stroke-width:1px;marker:none;enable-background:accumulate"
       d="M 524.82113,690.29184 C 489.15344,650.82427 468.36894,626.54639 447.55144,600.035 411.98625,554.74221 384.08379,509.92673 365.2041,467.77303 c -9.18231,-20.50186 -21.09123,-52.27448 -19.96846,-53.27522 0.99713,-0.88873 38.29261,-7.47635 58.55713,-10.34312 36.059,-5.10117 60.1534,-6.94966 96.01677,-7.36625 48.23215,-0.56026 84.78897,2.64469 128.39821,11.25673 20.3283,4.01448 26.58914,5.55382 26.79531,6.58815 0.25938,1.3011 -3.58073,25.32287 -6.48758,40.58319 -13.60113,71.40265 -34.48672,128.22977 -69.53083,189.18485 -5.13893,8.93855 -36.10597,60.69028 -37.47792,62.63258 -0.5978,0.8463 -2.66647,-1.2294 -16.6856,-16.7421 z"
       id="path3786"
       />
    <path
       style="fill:#ffffff;fill-opacity:1;fill-rule:evenodd;stroke:#ffffff;stroke-width:4.97401953;stroke-linecap:round;stroke-linejoin:round;stroke-miterlimit:4;stroke-dasharray:none;stroke-dashoffset:0;stroke-opacity:0"
       d="m 396.80188,426.6924 -4.39686,16.51339 -16.41156,0.198 13.68453,9.46451 -4.89085,16.36489 12.84471,-10.67232 13.39801,9.91992 -5.75048,-16.05799 13.17075,-10.23672 -16.4017,0.74251 -5.24655,-16.23619 z m 20.01798,40.38257 -4.38696,16.52329 -16.41157,0.1881 13.68454,9.46451 -4.90075,16.36489 12.85457,-10.66242 13.38814,9.91001 -5.74057,-16.05798 13.17074,-10.22682 -16.4017,0.74251 -5.25644,-16.24609 z m 22.80428,38.24414 -4.39682,16.52329 -16.41159,0.198 13.68456,9.46451 -4.89088,16.35499 12.8447,-10.66242 13.39801,9.91991 -5.75047,-16.05798 13.17077,-10.23672 -16.40169,0.74251 -5.24659,-16.24609 z m 28.76227,35.94732 -4.39685,16.51339 -16.4116,0.198 13.68457,9.46451 -4.89085,16.36489 12.8447,-10.66242 13.38812,9.91001 -5.74061,-16.05799 13.17077,-10.22681 -16.4017,0.7425 -5.24655,-16.24608 z m 30.43207,39.81826 -4.39686,16.52329 -16.41159,0.1881 13.68456,9.47441 -4.89085,16.35499 12.8447,-10.66242 13.38812,9.91991 -5.74061,-16.05798 13.17078,-10.23672 -16.4017,0.74251 -5.24655,-16.24609 z m 32.68483,35.83841 -4.39686,16.51339 -16.41159,0.19801 13.68456,9.46451 -4.89085,16.36493 12.8447,-10.66247 13.38812,9.90997 -5.74061,-16.05794 13.17078,-10.22682 -16.4017,0.74251 -5.24655,-16.24609 z"
       id="path3806"
       />
    <path
       id="path3847"
       d="m 544.00597,596.33102 c -20.01758,-22.1502 -31.68236,-35.77554 -43.36565,-50.65439 -19.96005,-25.41942 -35.61959,-50.57096 -46.21534,-74.22865 -5.15333,-11.50615 -11.83691,-29.33772 -11.20679,-29.89936 0.55962,-0.49878 21.49075,-4.19591 32.8637,-5.80481 20.23719,-2.86291 33.75956,-3.90032 53.88696,-4.13412 27.06906,-0.31444 47.58565,1.48426 72.06022,6.31755 11.40874,2.25303 14.92248,3.11694 15.03818,3.69743 0.14558,0.73021 -2.00959,14.21182 -3.64098,22.77628 -7.63329,40.07291 -19.3548,71.96569 -39.02241,106.17517 -2.88409,5.01654 -20.26355,34.06086 -21.03352,35.15092 -0.3355,0.47495 -1.49649,-0.68994 -9.36437,-9.39602 z"
       style="color:#000000;display:inline;overflow:visible;visibility:visible;fill:#ffdd21;fill-opacity:1;fill-rule:evenodd;stroke:none;stroke-width:1px;marker:none;enable-background:accumulate" />
    <path
       style="fill:#000000;fill-rule:evenodd;stroke:none"
       d="m 510.00822,432.45722 c -0.10617,-0.0504 -0.45226,0.4165 -0.99795,1.34642 -0.19755,0.0779 -0.59587,0.45555 -1.18567,1.10881 -0.73109,0.8098 -1.74678,2.04097 -2.97402,3.65314 -1.22725,1.61218 -2.67022,3.60732 -4.22888,5.95987 -1.55865,2.35256 -3.23683,5.06286 -4.89088,8.128 -1.06858,1.97118 -2.14128,4.10857 -3.09259,6.42517 -0.95129,2.3166 -1.77309,4.80576 -2.29229,7.49439 -0.33059,1.7197 -0.50914,3.53995 -0.40508,5.41536 0.0753,1.34313 0.30669,2.70795 0.74102,4.03925 0.0584,0.17903 0.12246,0.35775 0.18772,0.5346 0.51144,1.37278 1.22512,2.64266 2.07494,3.77195 0.87556,1.16065 1.86466,2.16373 2.90485,3.04923 2.37433,2.01629 4.92743,3.49136 7.3116,4.81146 1.4485,0.8068 2.85631,1.56508 4.19924,2.30673 1.3429,0.74165 2.61738,1.4698 3.81389,2.20772 1.50788,0.93187 2.8917,1.88283 4.13007,2.84133 1.23834,0.9585 2.32817,1.92045 3.27044,2.88094 1.11766,1.13536 2.03327,2.25903 2.77645,3.28684 0.74317,1.0278 1.32194,1.96011 1.7785,2.73243 0.45652,0.77231 0.78627,1.39214 1.03747,1.80182 0.25114,0.40967 0.42339,0.61537 0.51379,0.5841 0.0905,-0.0313 0.0945,-0.29862 0.01,-0.7821 -0.0846,-0.48349 -0.26391,-1.19037 -0.58297,-2.06913 -0.31905,-0.87876 -0.77839,-1.93211 -1.43266,-3.10863 -0.6543,-1.17653 -1.49659,-2.46858 -2.5986,-3.79175 -0.92845,-1.1116 -2.02758,-2.24195 -3.28034,-3.34624 -1.25269,-1.10428 -2.66423,-2.1836 -4.19921,-3.22743 -1.21561,-0.82823 -2.50514,-1.64113 -3.84351,-2.44533 -1.33838,-0.80421 -2.72596,-1.60478 -4.1301,-2.43543 -2.31297,-1.37614 -4.68306,-2.79087 -6.7385,-4.60355 -0.89453,-0.78686 -1.72468,-1.64005 -2.42075,-2.58393 -0.67352,-0.9106 -1.23673,-1.91254 -1.6303,-2.97994 -0.0513,-0.13738 -0.10219,-0.27561 -0.1482,-0.4158 -0.34194,-1.04249 -0.53092,-2.14543 -0.60272,-3.24724 -0.10207,-1.54966 0.0476,-3.12126 0.31617,-4.66295 0.42292,-2.4393 1.13929,-4.75351 1.98601,-6.95979 0.84669,-2.20627 1.81811,-4.30462 2.77645,-6.27667 1.48891,-3.0492 2.99255,-5.7909 4.36716,-8.20719 1.37465,-2.4163 2.62133,-4.50585 3.64594,-6.23707 0.0592,-0.10001 0.10042,-0.16972 0.15809,-0.26731 -0.76465,1.74666 -1.58487,3.80472 -2.35157,6.20737 -0.91233,2.85906 -1.74935,6.1753 -2.20338,9.93972 -0.33964,2.83127 -0.43152,5.93021 0.01,9.1774 0.33869,2.49246 1.01594,5.07094 2.19348,7.56369 0.99602,2.10314 2.35628,4.11552 4.08065,5.88067 1.59723,1.63076 3.48095,3.02599 5.57262,4.11845 2.0991,1.08931 4.37488,1.87653 6.73856,2.37603 2.36368,0.49949 4.81402,0.71084 7.27208,0.6534 0.65506,-0.0142 1.31008,-0.0403 1.96621,-0.0891 4.79413,-0.35687 9.37766,-1.61801 13.51658,-3.40564 2.80718,-1.2099 5.42731,-2.66848 7.82539,-4.29665 2.39811,-1.62817 4.57686,-3.42068 6.52116,-5.31636 2.4995,-2.43705 4.60506,-5.03389 6.3433,-7.64289 1.73822,-2.60899 3.10878,-5.2315 4.16959,-7.74189 1.27413,-3.01982 2.0923,-5.86443 2.63809,-8.39529 0.54579,-2.53087 0.81292,-4.7513 0.93867,-6.56378 0.12574,-1.81248 0.11809,-3.22366 0.0593,-4.17785 -0.0588,-0.95418 -0.1664,-1.45278 -0.27665,-1.45531 -0.11026,-0.003 -0.21703,0.49216 -0.3656,1.42561 -0.14851,0.93346 -0.34195,2.31046 -0.65208,4.05905 -0.31011,1.74858 -0.74508,3.87288 -1.4327,6.27667 -0.68762,2.40379 -1.61978,5.08248 -2.96416,7.90029 -1.11671,2.34405 -2.51383,4.78154 -4.23877,7.19739 -1.7249,2.41584 -3.78363,4.81038 -6.18519,7.04888 -1.87015,1.74322 -3.95139,3.39759 -6.22477,4.89065 -2.27334,1.49307 -4.73836,2.82479 -7.37085,3.93035 -3.88664,1.62855 -8.13236,2.78431 -12.52853,3.10864 -0.60171,0.0444 -1.19941,0.0668 -1.79829,0.0792 -2.24138,0.0425 -4.46549,-0.12733 -6.5804,-0.55441 -2.11488,-0.42708 -4.12637,-1.10767 -5.95799,-2.04932 -1.82488,-0.93121 -3.4727,-2.11604 -4.86122,-3.49474 -1.50188,-1.48677 -2.70828,-3.21486 -3.61628,-5.02926 -1.08054,-2.15329 -1.74742,-4.44499 -2.1243,-6.70238 -0.49185,-2.94731 -0.48862,-5.83952 -0.27666,-8.5339 0.28086,-3.59612 0.92862,-6.82831 1.65004,-9.65261 0.72139,-2.8243 1.5148,-5.24215 2.19348,-7.21718 0.67867,-1.97504 1.24387,-3.5089 1.60065,-4.56396 0.35677,-1.05506 0.50351,-1.63165 0.39522,-1.68302 z m 63.62078,3.10864 c -0.025,-0.004 -0.0456,-6.3e-4 -0.0592,0.01 -0.10892,0.0835 0.15838,0.62921 0.69161,1.60382 0.26663,0.48731 0.59454,1.08729 0.96832,1.79192 0.37373,0.70464 0.7876,1.51739 1.2054,2.44533 0.62663,1.39229 1.27445,3.04109 1.69945,4.94016 0.30761,1.37064 0.50092,2.88008 0.48416,4.47485 -0.0126,1.34854 -0.18344,2.76854 -0.50389,4.22735 -0.29335,1.34926 -0.72635,2.72573 -1.26471,4.13825 -0.53835,1.41252 -1.18421,2.86248 -1.8872,4.34615 -1.40756,2.95367 -3.05949,6.03713 -4.62409,9.39521 -1.62022,3.47362 -3.11172,7.22811 -4.16959,11.25643 -0.062,0.23683 -0.12903,0.47438 -0.18771,0.7128 -1.10311,4.4787 -1.55414,8.96838 -1.47222,13.24636 0.0642,3.22767 0.41438,6.31814 0.93864,9.2269 0.52428,2.90877 1.22278,5.63137 1.9959,8.1478 1.04844,3.41438 2.22295,6.45431 3.36925,9.0883 1.1463,2.634 2.26857,4.86927 3.24081,6.67268 0.97225,1.80341 1.79355,3.17721 2.40099,4.08875 0.60741,0.91153 0.99672,1.36002 1.11649,1.29691 0.11976,-0.0631 -0.0335,-0.63192 -0.41499,-1.65332 -0.38153,-1.02139 -0.98792,-2.498 -1.74887,-4.37585 -0.76094,-1.87784 -1.67533,-4.16062 -2.62819,-6.81127 -0.95293,-2.65066 -1.94658,-5.66802 -2.82587,-9.01901 -0.64693,-2.46706 -1.23088,-5.11399 -1.65993,-7.91019 -0.42905,-2.7962 -0.69998,-5.74444 -0.7114,-8.7913 -0.018,-4.02934 0.43579,-8.24886 1.47222,-12.45435 0.0552,-0.22387 0.1099,-0.44091 0.16798,-0.6633 0.98499,-3.78605 2.39246,-7.37774 3.9127,-10.77133 1.47041,-3.27867 3.06461,-6.40931 4.42648,-9.48431 0.68759,-1.54347 1.31916,-3.08754 1.83775,-4.62335 0.51866,-1.53581 0.92988,-3.06622 1.19556,-4.57385 0.28548,-1.63759 0.38523,-3.24228 0.31618,-4.76196 -0.0834,-1.79831 -0.41119,-3.45915 -0.85959,-4.94016 -0.62123,-2.04731 -1.45764,-3.74349 -2.27256,-5.12826 -0.54246,-0.92199 -1.07212,-1.70379 -1.56109,-2.36612 -0.489,-0.66235 -0.93791,-1.20134 -1.31413,-1.62362 -0.65831,-0.739 -1.10061,-1.12936 -1.27461,-1.15832 z m -34.3151,12.67215 c -0.93348,0.0143 -1.87101,0.0846 -2.80607,0.2178 -1.73471,0.24712 -3.40713,0.69052 -4.97979,1.25731 -1.68469,0.59751 -3.29527,1.36806 -4.75253,2.33643 -1.36079,0.89442 -2.6066,2.01244 -3.56689,3.35614 -0.91631,1.27387 -1.47421,2.80348 -1.53147,4.37585 -0.0155,1.88132 0.64693,3.51815 1.54137,4.79166 0.73299,1.0517 1.56681,1.92035 2.41085,2.65323 0.84397,0.73287 1.70448,1.32624 2.51952,1.84142 1.2882,0.82237 2.49695,1.45708 3.57676,1.96022 1.07977,0.50314 2.03178,0.87557 2.81594,1.14841 0.78415,0.27284 1.39595,0.44936 1.82791,0.53461 0.43196,0.0852 0.68196,0.0823 0.7213,-0.01 -0.008,-0.0162 -0.005,-0.0368 0,-0.0594 -0.0588,-0.22081 -0.7963,-0.71698 -2.06505,-1.49491 -0.69452,-0.42582 -1.54598,-0.93402 -2.50966,-1.55432 -0.96371,-0.6203 -2.04804,-1.34627 -3.17164,-2.22753 -0.70893,-0.56128 -1.43491,-1.17334 -2.12433,-1.86122 -0.68946,-0.68787 -1.33569,-1.45484 -1.84768,-2.32652 -0.58739,-1.01579 -1.02827,-2.17679 -0.91887,-3.27694 0.0472,-0.92118 0.48464,-1.8911 1.12638,-2.76213 0.70859,-0.95384 1.71795,-1.78319 2.86536,-2.52453 1.23514,-0.7876 2.62971,-1.42383 4.12017,-1.94043 1.41163,-0.48034 2.88129,-0.85922 4.38696,-1.07911 1.62322,-0.23705 3.23221,-0.27791 4.77231,-0.099 1.76731,0.19931 3.43688,0.98598 4.63396,2.13842 0.63349,0.60497 1.15174,1.32858 1.51174,2.09883 0.35997,0.77024 0.56061,1.58777 0.60273,2.38593 0.0966,1.16308 -0.15622,2.31007 -0.58297,3.38584 -0.42671,1.07577 -1.02261,2.08383 -1.65993,2.97003 -1.0744,1.47057 -2.26984,2.64287 -3.39891,3.62344 -1.12903,0.98057 -2.19332,1.76753 -3.07286,2.40573 -0.87951,0.6382 -1.57513,1.13037 -2.03536,1.49492 -0.38887,0.30797 -0.60529,0.52056 -0.63235,0.6435 0.006,0.0209 0.007,0.0435 0,0.0594 0.0523,0.10459 0.37008,0.0727 0.93863,-0.099 0.56852,-0.17173 1.3884,-0.48592 2.40096,-0.97021 1.01262,-0.48429 2.22045,-1.13718 3.53726,-2.04932 1.31679,-0.91214 2.74711,-2.07803 4.10041,-3.63334 0.83635,-0.9506 1.61883,-2.08885 2.21324,-3.41554 0.59445,-1.3267 0.99479,-2.84822 0.99795,-4.51445 -0.024,-1.16922 -0.27102,-2.34722 -0.74105,-3.46504 -0.47006,-1.11782 -1.16752,-2.17495 -2.06502,-3.07894 -1.6606,-1.66422 -3.91605,-2.79556 -6.38286,-3.09874 -0.91742,-0.1108 -1.84294,-0.15293 -2.77642,-0.1386 z m -1.64017,64.25174 c -2.42846,-0.033 -4.82957,0.57736 -7.03494,1.54442 -0.54304,0.23575 -1.08161,0.48424 -1.61052,0.75241 -2.44781,1.24114 -4.63674,2.74741 -6.63972,4.26695 -3.69586,2.79508 -6.93424,5.67201 -9.74224,8.36559 -2.80797,2.69358 -5.18607,5.20554 -7.12386,7.33599 -1.93778,2.13045 -3.43311,3.88981 -4.41661,5.13816 -0.98347,1.24834 -1.45129,1.99371 -1.3141,2.12852 0.13719,0.13481 0.8681,-0.35816 2.09467,-1.36621 1.22655,-1.00806 2.94826,-2.54005 5.06871,-4.46496 2.12047,-1.9249 4.63459,-4.24497 7.5191,-6.76177 2.88455,-2.51681 6.13463,-5.22298 9.76198,-7.8706 1.96279,-1.42785 4.01257,-2.83417 6.21487,-3.95014 0.47579,-0.24112 0.95122,-0.46531 1.43267,-0.67321 1.93418,-0.82553 3.89445,-1.3697 5.75047,-1.34641 1.71232,-0.006 3.41282,0.48051 4.94027,1.20781 1.9498,0.92798 3.67167,2.24372 5.28607,3.54424 1.18715,0.96144 2.29434,1.92542 3.33966,2.85123 1.04531,0.92582 2.0297,1.81225 2.95426,2.63343 2.42094,2.15128 4.42004,3.84315 5.85918,4.94016 1.43911,1.09702 2.3124,1.60819 2.45037,1.45532 0.13795,-0.15287 -0.46389,-0.96194 -1.65006,-2.31663 -1.18617,-1.35468 -2.95319,-3.26097 -5.1774,-5.61336 -0.84761,-0.897 -1.76725,-1.86125 -2.76656,-2.87104 -0.99931,-1.00979 -2.08253,-2.07318 -3.27047,-3.13833 -1.60628,-1.44767 -3.44058,-2.94321 -5.70106,-4.12835 -1.82143,-0.95351 -3.94526,-1.60507 -6.22474,-1.66322 z m 5.08846,29.71024 c -2.20204,0.0134 -4.47204,0.0941 -6.78791,0.21781 -4.50932,0.24092 -8.79485,0.62493 -12.70638,0.99001 -3.18216,0.29625 -6.12517,0.59093 -8.75416,0.85141 -2.62898,0.26047 -4.93957,0.48697 -6.85709,0.69301 -1.91752,0.20603 -3.44304,0.3908 -4.48577,0.5643 -1.04275,0.17351 -1.60381,0.33774 -1.60064,0.50491 0.002,0.16717 0.56649,0.3265 1.62041,0.4554 1.05394,0.12891 2.59401,0.22824 4.53518,0.27721 1.94114,0.0489 4.27974,0.0483 6.93611,-0.0198 2.65636,-0.0681 5.6278,-0.20475 8.82334,-0.38611 3.93353,-0.2224 8.20894,-0.53374 12.65698,-0.77221 2.28442,-0.12246 4.50616,-0.21617 6.65946,-0.2673 2.89021,-0.0683 5.63867,-0.0547 8.18108,0.1089 2.55361,0.16632 4.88159,0.47652 6.93618,0.96031 1.12413,0.26613 2.17327,0.57934 3.11235,0.93061 0.93908,0.35127 1.77195,0.74146 2.50966,1.14842 1.54778,0.85042 2.6514,1.77511 3.3989,2.42552 0.37376,0.32521 0.65512,0.57798 0.86949,0.74251 0.2144,0.16453 0.35693,0.23398 0.42488,0.1881 0.0679,-0.0459 0.0625,-0.20158 -0.0297,-0.4653 -0.0921,-0.26372 -0.27103,-0.63183 -0.55331,-1.07911 -0.28225,-0.44729 -0.6671,-0.97803 -1.18567,-1.54442 -0.51853,-0.56639 -1.16969,-1.17296 -1.96624,-1.76222 -0.75541,-0.55754 -1.63359,-1.09836 -2.62819,-1.59392 -0.99457,-0.49556 -2.10071,-0.93813 -3.30013,-1.31672 -2.1851,-0.69259 -4.68395,-1.18761 -7.35113,-1.47511 -2.65712,-0.28835 -5.49854,-0.39452 -8.45774,-0.37621 z"
       id="path3857"
       />
    <path
       style="fill:#ffdd21;fill-opacity:1;fill-rule:evenodd;stroke:#ffffff;stroke-width:6.32980633;stroke-linecap:round;stroke-linejoin:round;stroke-miterlimit:4;stroke-dasharray:none;stroke-dashoffset:0;stroke-opacity:0"
       id="path3898"
       d="m 504.27368,413.35183 a 15.556639,14.919423 0 0 1 16.60509,-13.81149 15.556639,14.919423 0 0 1 14.43187,15.89953 15.556639,14.919423 0 0 1 -16.55207,13.8699 15.556639,14.919423 0 0 1 -14.49267,-15.84858"
       />
  </g>
</svg>
